<svg width="24" height="34" viewBox="0 0 24 34" fill="none" xmlns="http://www.w3.org/2000/svg">
<path d="M18.9616 11.9231C22.8654 10.0193 23.4231 0.5 23.4231 0.5H18.9616H18.4039H4.46154H0C0 0.5 0.557663 10.0193 4.46154 11.9231C4.46154 16.1115 7.47311 19.5385 11.1538 19.5385V24.6154H6.69231V28.4231H3.34615V33.5H20.0769V28.4231H16.7308V24.6154H12.2692V19.5385C15.95 19.5385 18.9616 16.1115 18.9616 11.9231ZM18.9616 1.76923H22.1962C22.1962 1.76923 21.5269 8.36923 18.9615 10.5269L18.9616 1.76923ZM4.46154 10.5269C1.89618 8.36923 1.22695 1.76923 1.22695 1.76923H4.46154V10.5269Z" fill="white"/>
</svg>
