<svg width="28" height="28" viewBox="0 0 28 28" fill="none" xmlns="http://www.w3.org/2000/svg">
<rect width="28" height="28" rx="14" fill="#FF0000"/>
<path d="M10.8889 19.25C10.2667 19.25 9.64444 18.6375 9.33333 18.375C7.77778 17.15 7.31111 16.7125 7 16.45V20.125C7 20.6082 7.3483 21 7.77778 21H14C14.4295 21 14.7778 20.6082 14.7778 20.125V16.45C14.4667 16.7125 14 17.15 12.4444 18.375C12.1333 18.6375 11.5111 19.25 10.8889 19.25ZM14 14H7.77778C7.3483 14 7 14.3918 7 14.875V15.3125C7.62222 15.8375 7.54444 15.8375 9.8 17.675C10.0333 17.85 10.5 18.375 10.8889 18.375C11.2778 18.375 11.7444 17.85 11.9778 17.7625C14.2333 15.925 14.1556 15.925 14.7778 15.4V14.875C14.7778 14.3918 14.4295 14 14 14ZM20.2222 11.375H12.4444C12.015 11.375 11.6667 11.7668 11.6667 12.25V13.125H14C14.8072 13.125 15.4727 13.8201 15.5485 14.706L15.5556 14.7V18.375H20.2222C20.6517 18.375 21 17.9832 21 17.5V12.25C21 11.7668 20.6517 11.375 20.2222 11.375ZM19.4444 14.875H17.8889V13.125H19.4444V14.875ZM10.8889 12.25C10.8889 11.285 11.5867 10.5 12.4444 10.5H17.8889V7.875C17.8889 7.39184 17.5406 7 17.1111 7H9.33333C8.90385 7 8.55556 7.39184 8.55556 7.875V13.125H10.8889V12.25Z" fill="white"/>
</svg>
