<svg width="28" height="28" viewBox="0 0 28 28" fill="none" xmlns="http://www.w3.org/2000/svg">
<rect width="28" height="28" rx="14" fill="#FF0000"/>
<path d="M20.8096 19.104L18.0832 16.3781C17.9601 16.255 17.7933 16.1867 17.6183 16.1867H17.1726C17.9273 15.2214 18.3758 14.0077 18.3758 12.687C18.3758 9.54543 15.8298 7 12.688 7C9.54624 7 7 9.54543 7 12.687C7 15.8285 9.54596 18.3739 12.688 18.3739C14.0087 18.3739 15.223 17.9255 16.1883 17.1708V17.6165C16.1883 17.7915 16.2566 17.9583 16.3797 18.0813L19.1061 20.8072C19.3631 21.0643 19.7788 21.0643 20.0331 20.8072L20.8069 20.0334C21.0639 19.7764 21.0639 19.361 20.8096 19.104ZM12.688 16.6239C10.5131 16.6239 8.75054 14.8646 8.75054 12.687C8.75054 10.5123 10.5101 8.75 12.688 8.75C14.8629 8.75 16.6255 10.5093 16.6255 12.687C16.6255 14.8616 14.8659 16.6239 12.688 16.6239ZM12.6886 10.0625C11.5735 10.0625 10.6695 10.9662 10.6695 12.0813C10.6695 12.9825 11.9891 14.6256 12.4947 15.222C12.5184 15.2504 12.5481 15.2732 12.5816 15.2888C12.6151 15.3045 12.6516 15.3126 12.6886 15.3126C12.7255 15.3126 12.7621 15.3045 12.7956 15.2888C12.8291 15.2732 12.8587 15.2504 12.8824 15.222C13.388 14.6256 14.7076 12.9828 14.7076 12.0813C14.7076 10.9662 13.8036 10.0625 12.6886 10.0625ZM12.6886 12.6875C12.326 12.6875 12.0323 12.3936 12.0323 12.0312C12.0323 11.6687 12.3263 11.375 12.6886 11.375C13.0509 11.375 13.3448 11.6687 13.3448 12.0312C13.3448 12.3936 13.0509 12.6875 12.6886 12.6875Z" fill="white"/>
</svg>
