<svg width="28" height="28" viewBox="0 0 28 28" fill="none" xmlns="http://www.w3.org/2000/svg">
<rect width="28" height="28" rx="14" fill="#FF0000"/>
<path d="M21.9608 16.4828L18.592 15.039C18.4481 14.9777 18.2882 14.9647 18.1363 15.0022C17.9844 15.0396 17.8487 15.1254 17.7498 15.2465L16.2579 17.0693C13.9165 15.9654 12.0322 14.0811 10.9283 11.7397L12.751 10.2478C12.8725 10.149 12.9584 10.0134 12.9958 9.86142C13.0333 9.70946 13.0202 9.54943 12.9586 9.40556L11.5148 6.03675C11.4472 5.88167 11.3275 5.75505 11.1765 5.67873C11.0255 5.6024 10.8526 5.58116 10.6876 5.61866L7.55946 6.34055C7.4004 6.37728 7.25848 6.46684 7.15687 6.59462C7.05526 6.72239 6.99996 6.88084 7 7.04409C7 14.7593 13.2534 21.0006 20.9565 21.0006C21.1198 21.0007 21.2783 20.9454 21.4061 20.8438C21.534 20.7422 21.6236 20.6002 21.6603 20.4411L22.3822 17.3129C22.4195 17.1472 22.3978 16.9736 22.3209 16.822C22.244 16.6705 22.1166 16.5506 21.9608 16.4828Z" fill="white"/>
</svg>
