<svg width="36" height="36" viewBox="0 0 36 36" fill="none" xmlns="http://www.w3.org/2000/svg">
<g clip-path="url(#clip0_7055_516)">
<path d="M18.1439 4.48451C17.6327 4.48378 17.1226 4.48608 16.6114 4.49101C13.8645 4.53858 11.1005 4.60532 8.3793 4.98548C7.44022 5.46288 6.95853 6.51082 6.37206 7.33987C5.31154 9.11439 4.81811 11.1535 4.23383 13.1128C3.98874 13.3793 3.82109 13.7501 3.54624 13.9741C3.30042 13.9146 3.56405 13.36 3.5037 13.0965C3.64767 12.2824 2.67329 11.7868 1.99418 12.0978C1.3068 12.3633 0.265141 12.4336 3.76216e-05 13.2439C-0.00687812 14.1627 0.940893 14.8506 1.82726 14.7371C2.23518 14.8036 2.40808 15.312 2.65904 15.5917C2.68031 17.0757 2.34311 18.5633 2.42652 20.0581C2.46938 21.004 2.37465 21.9989 2.66553 22.907C2.74747 22.9933 2.82606 23.0184 2.9013 23.0085C2.88485 23.0627 2.87185 23.1182 2.87185 23.1756V30.8772C2.87185 31.2131 3.17772 31.519 3.51365 31.519H6.08086C6.4168 31.5188 6.72266 31.2131 6.72266 30.8772V28.2215H29.2611V30.8772C29.2611 31.2131 29.5669 31.5188 29.9029 31.519H32.4701C32.8061 31.5188 33.1117 31.2131 33.1119 30.8772V23.1756C33.1119 23.1147 33.1009 23.0559 33.0824 22.9987C33.5442 23.0012 33.4276 22.2567 33.5016 21.9246C33.5798 19.93 33.5743 17.9004 33.2626 15.9356C33.3152 15.46 33.7322 15.0206 34.0845 14.7503C34.9327 14.7921 35.8697 14.3055 36 13.398C35.8801 12.5551 34.8231 12.383 34.1597 12.1405C33.5594 11.8922 32.5404 12.0084 32.4799 12.8085C32.4162 13.173 32.6516 13.7403 32.4898 13.9808C32.117 13.8248 31.9685 13.3405 31.717 13.0377C31.2051 11.2477 30.7406 9.39301 29.8636 7.72977C29.2589 6.76241 28.6487 5.69958 27.7155 5.01189C26.0979 4.67102 24.3955 4.75097 22.7449 4.59275C21.2128 4.51856 19.6775 4.48681 18.1439 4.48451ZM18.0162 5.31293C21.0411 5.31283 24.0663 5.32257 24.3032 5.34562C24.5018 5.3649 24.7584 5.42044 24.8795 5.46675C25.1196 5.55865 25.2114 5.65568 25.7505 6.37376C26.2866 7.08766 26.4535 7.26883 27.0766 7.82439C28.1427 8.77468 28.2538 8.93028 28.56 9.90697C28.657 10.2165 28.945 11.1244 29.2018 11.9273C29.4585 12.7304 29.6631 13.4326 29.6569 13.486L29.6471 13.5843L27.0569 13.6072C22.0618 13.6521 16.3332 13.6623 12.97 13.6367C11.1026 13.6224 8.85261 13.6101 7.9698 13.6072C6.5548 13.6025 6.3621 13.5933 6.3424 13.5417C6.33004 13.5096 6.50974 12.8893 6.74184 12.1632C6.97404 11.437 7.26377 10.5244 7.38689 10.133C7.74955 8.98016 7.87351 8.78191 8.6378 8.09956C9.42536 7.39645 9.75113 7.05434 10.2063 6.4557C10.4574 6.12553 10.7262 5.78299 10.8056 5.69602C10.9903 5.49347 11.2581 5.39477 11.7289 5.34898C11.9661 5.32592 14.9913 5.31304 18.0162 5.31293ZM5.34381 14.9367C6.95162 15.2736 8.41796 16.2863 9.88882 17.0127C10.723 17.3276 11.8371 18.1846 11.1823 19.1673C10.0776 19.9477 8.52893 19.429 7.26597 19.3965C6.26172 19.1091 4.68231 19.2062 4.19779 18.0998C4.13481 17.055 3.89402 15.1032 5.34381 14.9367ZM30.4593 14.9957C32.0929 14.9369 32.4054 17.6589 31.3761 18.5257C29.7508 19.5737 27.6287 19.4705 25.7571 19.4851C24.8577 19.6265 23.9816 18.5291 24.8959 17.8871C26.5207 16.5945 28.4526 15.5499 30.4593 14.9957Z" fill="white"/>
</g>
<defs>
<clipPath id="clip0_7055_516">
<rect width="36" height="36" fill="white"/>
</clipPath>
</defs>
</svg>
