<svg width="30" height="30" viewBox="0 0 30 30" fill="none" xmlns="http://www.w3.org/2000/svg">
<path d="M27.1685 0H2.44222C1.30923 0 0.388672 0.970982 0.388672 2.16295V27.8371C0.388672 29.029 1.30923 30 2.44222 30H27.1685C28.3015 30 29.2285 29.029 29.2285 27.8371V2.16295C29.2285 0.970982 28.3015 0 27.1685 0ZM9.10498 25.7143H4.83051V11.3973H9.11142V25.7143H9.10498ZM6.96775 9.44196C5.59657 9.44196 4.48933 8.28348 4.48933 6.86384C4.48933 5.4442 5.59657 4.28571 6.96775 4.28571C8.33249 4.28571 9.44616 5.4442 9.44616 6.86384C9.44616 8.29018 8.33892 9.44196 6.96775 9.44196ZM25.1278 25.7143H20.8533V18.75C20.8533 17.0893 20.8211 14.9531 18.6324 14.9531C16.405 14.9531 16.0639 16.7612 16.0639 18.6295V25.7143H11.7894V11.3973H15.8901V13.3527H15.948C16.5209 12.2277 17.9179 11.0424 19.9971 11.0424C24.3231 11.0424 25.1278 14.0089 25.1278 17.8661V25.7143Z" fill="white"/>
</svg>
