<svg width="239" height="113" viewBox="0 0 239 113" fill="none" xmlns="http://www.w3.org/2000/svg">
<path fill-rule="evenodd" clip-rule="evenodd" d="M113.946 112.656C116.659 102.592 118.016 91.0082 118.016 77.9061C118.016 53.8261 113.326 34.8561 103.946 20.9961C94.7061 7.13609 79.7261 0.206091 59.0061 0.206091C38.2861 0.206091 23.2361 7.13609 13.8561 20.9961C4.61609 34.8561 -0.00390625 53.8261 -0.00390625 77.9061C-0.00390625 91.0082 1.33259 102.592 4.00558 112.656H40.7987C38.9991 109.501 37.7183 105.828 36.9561 101.636C35.8361 95.3361 35.2761 87.4261 35.2761 77.9061C35.2761 63.7661 36.8161 52.9161 39.8961 45.3561C42.9761 37.6561 49.3461 33.8061 59.0061 33.8061C68.6661 33.8061 75.0361 37.6561 78.1161 45.3561C81.1961 52.9161 82.7361 63.7661 82.7361 77.9061C82.7361 87.4261 82.1761 95.3361 81.0561 101.636C80.2939 105.828 78.9806 109.501 77.1162 112.656H113.946ZM199.826 112.656H154.173C162.372 105.708 169.174 99.7247 174.578 94.7061C182.558 87.4261 189.278 79.7961 194.738 71.8161C200.198 63.8361 202.928 56.0661 202.928 48.5061C202.928 42.7661 201.598 38.2861 198.938 35.0661C196.278 31.8461 192.288 30.2361 186.968 30.2361C181.648 30.2361 177.448 32.2661 174.368 36.3261C171.428 40.2461 169.958 45.8461 169.958 53.1261H135.308C135.588 41.2261 138.108 31.2861 142.868 23.3061C147.768 15.3261 154.138 9.4461 161.978 5.6661C169.958 1.88609 178.778 -0.00390625 188.438 -0.00390625C205.098 -0.00390625 217.628 4.26609 226.028 12.8061C234.568 21.3461 238.838 32.4761 238.838 46.1961C238.838 61.1761 233.728 75.1061 223.508 87.9861C216.815 96.3295 208.921 104.553 199.826 112.656Z" fill="#474747" fill-opacity="0.15"/>
</svg>
