<svg width="199" height="119" viewBox="0 0 199 119" fill="none" xmlns="http://www.w3.org/2000/svg">
<path fill-rule="evenodd" clip-rule="evenodd" d="M115.76 118.656H6.16431C2.05607 107.236 0.00195312 93.5822 0.00195312 77.6961C0.00195312 53.6161 4.90195 34.6461 14.702 20.7861C24.502 6.9261 39.902 -0.00390625 60.902 -0.00390625C81.902 -0.00390625 97.302 6.9261 107.102 20.7861C117.042 34.6461 122.012 53.6161 122.012 77.6961C122.012 93.5822 119.928 107.236 115.76 118.656ZM198.29 118.656H155.24V41.7861H133.61V3.1461H198.29V118.656ZM77.282 48.9261C79.942 55.5061 81.272 65.0961 81.272 77.6961C81.272 90.5761 79.942 100.376 77.282 107.096C74.762 113.676 69.302 116.966 60.902 116.966C52.502 116.966 46.972 113.676 44.312 107.096C41.792 100.376 40.532 90.5761 40.532 77.6961C40.532 65.0961 41.862 55.5061 44.522 48.9261C47.182 42.2061 52.642 38.8461 60.902 38.8461C69.162 38.8461 74.622 42.2061 77.282 48.9261Z" fill="#FA4F4F" fill-opacity="0.25"/>
</svg>
