<svg width="31" height="31" viewBox="0 0 31 31" fill="none" xmlns="http://www.w3.org/2000/svg">
<path d="M12.8545 11.7703L19.4056 15.5138L12.8545 19.2574V11.7703ZM30.8287 3.32143V27.6786C30.8287 29.5123 29.3492 31 27.5257 31H3.30308C1.4795 31 0 29.5123 0 27.6786V3.32143C0 1.48772 1.4795 0 3.30308 0H27.5257C29.3492 0 30.8287 1.48772 30.8287 3.32143ZM27.9385 15.5208C27.9385 15.5208 27.9385 11.3967 27.4155 9.41763C27.1265 8.32433 26.2801 7.46629 25.1997 7.17567C23.2523 6.64286 15.4144 6.64286 15.4144 6.64286C15.4144 6.64286 7.57644 6.64286 5.629 7.17567C4.54861 7.46629 3.7022 8.32433 3.41318 9.41763C2.89019 11.3897 2.89019 15.5208 2.89019 15.5208C2.89019 15.5208 2.89019 19.6449 3.41318 21.6239C3.7022 22.7172 4.54861 23.5406 5.629 23.8313C7.57644 24.3571 15.4144 24.3571 15.4144 24.3571C15.4144 24.3571 23.2523 24.3571 25.1997 23.8243C26.2801 23.5337 27.1265 22.7103 27.4155 21.617C27.9385 19.6449 27.9385 15.5208 27.9385 15.5208Z" fill="white"/>
</svg>
